<?xml version="1.0" encoding="UTF-8"?>
<svg version="1.1" xmlns="http://www.w3.org/2000/svg" width="208" height="196">
<path d="M0 0 C68.64 0 137.28 0 208 0 C208 64.68 208 129.36 208 196 C139.36 196 70.72 196 0 196 C0 131.32 0 66.64 0 0 Z " fill="#FEFEFE" transform="translate(0,0)"/>
<path d="M0 0 C1.28834747 -0.00043808 2.57669495 -0.00087616 3.90408325 -0.00132751 C7.42440351 -0.00218597 10.94441523 0.01541513 14.46466398 0.03639436 C18.14818972 0.05518638 21.83172303 0.05691358 25.51528931 0.06047058 C32.48501985 0.06978366 39.45460871 0.09438737 46.42427695 0.12451905 C54.36136718 0.15808609 62.29846428 0.17455485 70.23560786 0.18960536 C86.55770814 0.22093765 102.87966605 0.27368369 119.20166016 0.34057617 C119.76416016 2.27807617 119.76416016 2.27807617 120.20166016 4.34057617 C118.52257229 6.01966404 116.45930696 5.46884796 114.15524292 5.47187805 C112.51497383 5.47789032 112.51497383 5.47789032 110.84156799 5.48402405 C109.02603676 5.48323097 109.02603676 5.48323097 107.17382812 5.48242188 C105.22945295 5.48775543 103.28507778 5.49309496 101.34070325 5.49865854 C99.24354205 5.50386591 97.14638714 5.5067726 95.04922104 5.5092411 C90.67853581 5.51514311 86.30793239 5.53167752 81.93728638 5.55058289 C80.44157987 5.55692088 78.94587331 5.56324649 77.4501667 5.56956005 C76.70091431 5.57272586 75.95166192 5.57589167 75.1797049 5.57915342 C65.00116568 5.62123379 54.82266332 5.6541846 44.64404297 5.66650391 C37.78357016 5.67489267 30.92329857 5.69741732 24.06292641 5.73585957 C20.43249348 5.75560078 16.80236121 5.76803156 13.17187119 5.76302528 C9.11625492 5.75750147 5.06138472 5.78282045 1.00585938 5.81054688 C-0.1923494 5.80394547 -1.39055817 5.79734406 -2.62507629 5.7905426 C-9.21423114 5.864524 -13.61737596 6.09762369 -18.79833984 10.34057617 C-23.82934226 15.9696253 -24.52250089 21.24038827 -24.42944336 28.5769043 C-24.43659866 29.56983994 -24.44375397 30.56277557 -24.4511261 31.58580017 C-24.4679514 34.84828551 -24.44864568 38.10938476 -24.42724609 41.37182617 C-24.42807535 43.65051385 -24.43053689 45.92920146 -24.43455505 48.20788574 C-24.43740886 52.97576983 -24.42275197 57.74318308 -24.39526367 62.51098633 C-24.36118233 68.61073311 -24.36720349 74.70963828 -24.38592625 80.80942535 C-24.39651413 85.512461 -24.38754203 90.21530212 -24.37254143 94.9183197 C-24.36737233 97.16689984 -24.3678259 99.4155004 -24.37408638 101.66407776 C-24.37956002 104.81124281 -24.35909346 107.95721864 -24.33178711 111.10424805 C-24.33831299 112.02604355 -24.34483887 112.94783905 -24.3515625 113.89756775 C-24.26421494 119.84290484 -23.17210854 124.37617931 -19.79833984 129.34057617 C-15.62460895 133.31071044 -12.46002733 134.46083288 -6.78388977 134.48774719 C-5.74797195 134.4949025 -4.71205414 134.5020578 -3.64474487 134.50942993 C-2.50860748 134.51211884 -1.37247009 134.51480774 -0.2019043 134.51757812 C0.99512619 134.52414932 2.19215668 134.53072052 3.42546082 134.53749084 C7.39642702 134.55724026 11.36738 134.56889306 15.33837891 134.57885742 C16.70737033 134.58290609 18.07636154 134.58702305 19.44535255 134.5912075 C25.87928352 134.61025673 32.31320306 134.62448688 38.7471568 134.63281947 C46.16329803 134.64258361 53.57914013 134.66888237 60.99517602 134.70932037 C66.73374544 134.73953264 72.47222938 134.75429327 78.21087676 134.75760049 C81.63512662 134.75994567 85.05905683 134.76883561 88.48322105 134.79406166 C92.30847336 134.81840665 96.1329459 134.81749579 99.95825195 134.81054688 C101.08426819 134.82335693 102.21028442 134.83616699 103.37042236 134.84936523 C109.63951968 134.80790736 115.25058108 134.55296353 120.20166016 130.34057617 C123.98275837 125.43566828 124.7889386 120.29692453 124.71923828 114.19970703 C124.72624756 113.42949722 124.73325684 112.65928741 124.74047852 111.86573792 C124.75793978 109.34525421 124.74648014 106.82591302 124.73291016 104.30541992 C124.73560823 102.54000129 124.73949327 100.77458411 124.74450684 99.00917053 C124.75038555 95.31993376 124.7418907 91.63108589 124.72314453 87.94189453 C124.70033898 83.22531961 124.71349827 78.50965447 124.73743439 73.79311275 C124.75192225 70.15126246 124.74727302 66.50962616 124.73692322 62.86776924 C124.73426505 61.12912448 124.73749351 59.39045996 124.74684143 57.6518383 C124.75705864 55.21805571 124.74143639 52.78572581 124.71923828 50.35205078 C124.72733521 49.64172699 124.73543213 48.9314032 124.74377441 48.19955444 C124.65719309 43.04738613 123.5984243 39.19621083 120.20166016 35.34057617 C114.28067575 30.58755428 107.55161931 30.76121124 100.27783203 30.79467773 C99.10623535 30.78434006 97.93463867 30.77400238 96.72753906 30.76335144 C92.87502159 30.73397601 89.02303072 30.7324253 85.17041016 30.73120117 C82.49138719 30.71621599 79.81241854 30.69968196 77.13342285 30.68109131 C70.8154829 30.64063246 64.4976459 30.62021455 58.17959642 30.60711741 C50.98235792 30.59121291 43.78529375 30.55278294 36.5881567 30.51252413 C21.79272811 30.43026391 6.99727664 30.37608526 -7.79833984 30.34057617 C-8.36083984 28.40307617 -8.36083984 28.40307617 -8.79833984 26.34057617 C-7.17524393 24.71748026 -5.38146917 25.20428638 -3.13829041 25.19340515 C-2.13036438 25.18624985 -1.12243835 25.17909454 -0.08396912 25.17172241 C1.58894447 25.16768906 1.58894447 25.16768906 3.2956543 25.16357422 C4.46313202 25.15700302 5.63060974 25.15043182 6.83346558 25.1436615 C10.0466523 25.12728616 13.25980485 25.11569046 16.47302175 25.10745597 C18.48170115 25.10230803 20.49037591 25.09623197 22.49905205 25.08994484 C28.78669133 25.07087835 35.0743188 25.05665464 41.36198145 25.04833287 C48.61344461 25.03857705 55.86460116 25.01230747 63.11595637 24.97183198 C68.7228518 24.94161377 74.32965971 24.92685831 79.93663496 24.92355186 C83.28385804 24.92120627 86.63049518 24.91032656 89.9776783 24.88709068 C93.71933426 24.8627375 97.4601933 24.86365833 101.2019043 24.87060547 C102.30301041 24.85779541 103.40411652 24.84498535 104.53858948 24.83178711 C112.54489229 24.88588481 117.75776454 26.52284339 123.95166016 31.59057617 C128.80272198 37.51965173 130.80535303 42.94151948 130.71923828 50.55737305 C130.72624756 51.33573013 130.73325684 52.11408722 130.74047852 52.91603088 C130.75794454 55.4641694 130.74647718 58.01117829 130.73291016 60.55932617 C130.73560836 62.3447694 130.73949352 64.13021119 130.74450684 65.91564941 C130.75038644 69.64776677 130.74188881 73.37949978 130.72314453 77.11157227 C130.70035577 81.8796117 130.71348715 86.64675033 130.73743439 91.41475677 C130.75193414 95.09868069 130.7472673 98.78239335 130.73692322 102.46632385 C130.73426746 104.22367969 130.73748492 105.98105512 130.74684143 107.73838806 C130.75707645 110.20069704 130.74141097 112.661576 130.71923828 115.1237793 C130.72733521 115.83985855 130.73543213 116.55593781 130.74377441 117.29371643 C130.63326006 123.96597126 128.14203502 128.96900689 123.95166016 134.09057617 C116.58864746 140.11485929 110.24996946 140.92794208 100.86987305 140.87402344 C99.04638084 140.88694679 99.04638084 140.88694679 97.18605042 140.90013123 C93.8716325 140.91886812 90.55822 140.91971258 87.2438271 140.91080976 C84.46812986 140.90567641 81.69252099 140.91301137 78.91683286 140.92028183 C72.36431617 140.93724525 65.81203255 140.93375129 59.25952148 140.91699219 C52.51896434 140.90007411 45.77905497 140.91590843 39.03856856 140.94821507 C33.23274601 140.97497884 27.42712427 140.98216879 21.62124628 140.97369999 C18.16181615 140.96879041 14.70277549 140.97087828 11.24339485 140.9914875 C7.38295597 141.01338801 3.52328779 140.99436931 -0.3371582 140.97167969 C-1.47042542 140.98337189 -2.60369263 140.99506409 -3.77130127 141.0071106 C-12.5410944 140.90251753 -18.32275067 138.66505277 -24.67333984 132.59057617 C-29.3190635 125.48535176 -30.24526621 118.46003625 -30.21826172 110.11425781 C-30.22673126 109.1341423 -30.23520081 108.15402679 -30.243927 107.14421082 C-30.26717604 103.92958318 -30.26832212 100.71543749 -30.26708984 97.50073242 C-30.27419804 95.25068473 -30.281898 93.00063884 -30.29016113 90.75059509 C-30.30357771 86.04429072 -30.30518706 81.33815403 -30.29931641 76.63183594 C-30.29341916 70.61857832 -30.3240271 64.60612774 -30.36443329 58.59302616 C-30.39035424 53.94912933 -30.39318375 49.3054258 -30.38954163 44.6614666 C-30.39122833 42.44521492 -30.40082728 40.22895388 -30.41868591 38.01277351 C-30.44096527 34.90673748 -30.43112792 31.8023223 -30.41357422 28.69628906 C-30.42683746 27.7926059 -30.44010071 26.88892273 -30.45376587 25.95785522 C-30.35932096 18.72009159 -28.23981852 12.21311783 -23.35567474 6.71720982 C-15.97894171 0.23220397 -9.40462928 -0.08364356 0 0 Z " fill="#277EC4" transform="translate(51.79833984375,26.659423828125)"/>
<path d="M0 0 C4.36350222 2.22291622 7.09544338 4.45022584 9 9 C9.54223844 13.26044487 9.30065535 15.42096006 7.3125 19.25 C3.7943527 23.43374273 1.56677417 24.77256504 -3.875 25.5625 C-8.22431982 25.41394638 -10.53711456 23.47942734 -13.65234375 20.60546875 C-16.2149132 17.55266862 -16.44733701 14.02393992 -16.42578125 10.13671875 C-15.64365115 6.21171725 -12.91214543 3.60282428 -10 1 C-6.78314421 -0.60842789 -3.4888991 -0.46778535 0 0 Z " fill="#3184C6" transform="translate(151,97)"/>
<path d="M0 0 C3.875 0.9375 3.875 0.9375 5.875 3.9375 C6.3266129 10.26008065 6.3266129 10.26008065 3.875 13.9375 C1.21717603 14.95000437 -1.29767102 15.21129273 -4.125 14.9375 C-7.19289958 12.40648284 -7.98688722 10.78344076 -8.625 6.875 C-8.125 3.9375 -8.125 3.9375 -6.625 1.5 C-3.8843275 -0.21292031 -3.10641744 -0.27110552 0 0 Z " fill="#F6FAFC" transform="translate(148.125,102.0625)"/>
</svg>
